<svg width="20" height="20" viewBox="0 0 20 20" fill="none" xmlns="http://www.w3.org/2000/svg">
<path fill-rule="evenodd" clip-rule="evenodd" d="M18.75 2.5H16.25C16.25 1.83696 15.9866 1.20107 15.5177 0.732231C15.0489 0.26339 14.413 0 13.75 0H6.25C5.58696 0 4.95111 0.26339 4.48227 0.732231C4.01343 1.20107 3.75 1.83696 3.75 2.5H1.25C0.918479 2.5 0.600555 2.63171 0.366135 2.86613C0.131714 3.10056 0 3.41848 0 3.75V7.5C0 8.70625 0.93628 10.8875 4.25003 11.19C4.64676 12.122 5.26331 12.944 6.04698 13.5857C6.83065 14.2275 7.75809 14.6698 8.75 14.875V17.5H6.25C5.91848 17.5 5.60055 17.6317 5.36613 17.8661C5.13171 18.1006 5 18.4185 5 18.75C5 19.0815 5.13171 19.3994 5.36613 19.6339C5.60055 19.8683 5.91848 20 6.25 20H13.75C14.0815 20 14.3994 19.8683 14.6339 19.6339C14.8683 19.3994 15 19.0815 15 18.75C15 18.4185 14.8683 18.1006 14.6339 17.8661C14.3994 17.6317 14.0815 17.5 13.75 17.5H11.25V14.875C12.2418 14.67 13.1691 14.2278 13.9528 13.5863C14.7365 12.9448 15.3531 12.123 15.75 11.1913C19.0612 10.8888 20 8.70751 20 7.50126V3.75126C20.0002 3.587 19.968 3.42432 19.9052 3.27251C19.8425 3.12071 19.7504 2.98276 19.6343 2.86655C19.5182 2.75035 19.3804 2.65815 19.2287 2.59525C19.0769 2.53236 18.9143 2.5 18.75 2.5ZM2.5 7.46376V5H3.75V8.60249C3.44634 8.57391 3.16019 8.4474 2.93472 8.242C2.70925 8.03659 2.55668 7.76345 2.5 7.46376ZM10 12.5C9.00544 12.5 8.05159 12.1049 7.34833 11.4016C6.64507 10.6984 6.25 9.74456 6.25 8.75V2.5H13.75V8.75C13.75 9.74456 13.3549 10.6984 12.6517 11.4016C11.9484 12.1049 10.9946 12.5 10 12.5ZM16.25 8.60249V5H17.5V7.46376C17.4433 7.76345 17.2907 8.03659 17.0653 8.242C16.8398 8.4474 16.5537 8.57391 16.25 8.60249Z" fill="#16EA96"/>
</svg>
