<svg width="120" height="38" viewBox="0 0 120 38" fill="none" xmlns="http://www.w3.org/2000/svg">
<path d="M67.9065 15.63C67.6793 15.7658 67.3584 15.8831 66.9438 15.9818C66.5348 16.0868 65.9839 16.1393 65.2909 16.1393C64.6037 16.1393 63.9306 16.059 63.2717 15.8985C62.0392 15.6022 61.1844 15.0713 60.7073 14.3058C60.2358 13.5342 60.0001 12.5712 60.0001 11.4168V6.85173C60.0001 4.96891 60.5511 3.65403 61.653 2.90707C62.5447 2.3021 63.8482 1.99962 65.5636 1.99962C68.3183 2.00579 69.9513 2.84843 70.4625 4.52753C70.6329 5.09546 70.7181 5.7776 70.7181 6.57393V6.78691L68.2303 6.99062V6.4443C68.2303 5.55536 68.0315 4.95348 67.6339 4.63865C67.2363 4.31764 66.5377 4.15714 65.538 4.15714C64.544 4.15714 63.7943 4.32999 63.2888 4.67569C62.7889 5.02138 62.539 5.6387 62.539 6.52764V11.6946C62.539 12.602 62.7975 13.2101 63.3143 13.5187C63.8312 13.8274 64.5809 13.9817 65.5636 13.9817C66.5462 13.9817 67.2704 13.8274 67.7361 13.5187C68.2076 13.2101 68.4433 12.602 68.4433 11.6946V10.6945H65.9044V8.88887H70.7266V15.8985H69.389L68.9885 14.3243C68.9147 14.596 68.7727 14.8491 68.5625 15.0836C68.3581 15.3121 68.1394 15.4942 67.9065 15.63Z" fill="#16EA96"/>
<path d="M75.6135 8.537H78.7233C79.3197 8.537 79.7286 8.35489 79.9501 7.99068C80.1773 7.62029 80.2909 7.06161 80.2909 6.31466C80.2909 4.89483 79.8025 4.18492 78.8255 4.18492H75.6135V8.537ZM73.0832 15.8985V2.23111H78.5103C80.1347 2.23111 81.2395 2.58916 81.8245 3.30524C82.4152 4.02133 82.7106 4.9936 82.7106 6.22206C82.7106 7.44435 82.5458 8.33637 82.2164 8.89813C81.8927 9.45372 81.4411 9.85497 80.8618 10.1019L83.2899 15.8985H80.6658L78.4592 10.5001H75.6135V15.8985H73.0832Z" fill="#16EA96"/>
<path d="M87.7083 11.4631H91.6444L89.7104 4.27752L87.7083 11.4631ZM83.8318 15.8985L87.9724 2.23111H91.3292L95.521 15.8985H92.8372L92.1301 13.2965H87.2056L86.4729 15.8985H83.8318Z" fill="#16EA96"/>
<path d="M96.8637 15.8985V2.23111H98.7636L105.298 11.602V2.23111H107.548V15.8985H105.648L99.1385 6.67579V15.8985H96.8637Z" fill="#16EA96"/>
<path d="M109.913 15.8985V2.23111H115.365C117.376 2.23111 118.728 2.87929 119.421 4.17566C119.807 4.90409 120 5.8455 120 6.99988V11.1945C120 13.5033 119.194 14.9571 117.58 15.5559C116.967 15.7843 116.232 15.8985 115.374 15.8985H109.913ZM112.443 13.7595H115.152C116.016 13.7595 116.618 13.5867 116.959 13.241C117.299 12.8953 117.47 12.3304 117.47 11.5464V6.63875C117.47 5.86711 117.294 5.29609 116.942 4.9257C116.595 4.55531 115.999 4.37011 115.152 4.37011H112.443V13.7595Z" fill="#16EA96"/>
<path d="M65.521 36.9996C64.4872 36.9996 63.6523 36.9194 63.0161 36.7589C62.38 36.5984 61.8688 36.3854 61.4826 36.1199C61.102 35.8545 60.7981 35.515 60.5709 35.1014C60.3438 34.6816 60.1904 34.2526 60.1109 33.8143C60.037 33.376 60.0001 32.8636 60.0001 32.2771V27.7121C60.0001 26.0824 60.304 24.9403 60.9117 24.286C61.5195 23.6255 62.326 23.2026 63.3314 23.0174C63.8994 22.9063 64.5412 22.8538 65.2569 22.86C67.8526 22.86 69.4003 23.6316 69.9002 25.1749C70.1273 25.8663 70.241 26.6935 70.241 27.6565V27.8232L67.7617 28.138V27.4436C67.7617 26.4929 67.5884 25.8509 67.242 25.5175C66.9012 25.1842 66.2452 25.0175 65.2739 25.0175C64.3026 25.0175 63.6012 25.1873 63.1695 25.5268C62.7435 25.8601 62.5305 26.4805 62.5305 27.388V32.5549C62.5305 33.4686 62.7492 34.0797 63.1865 34.3884C63.6296 34.6909 64.331 34.8421 65.2909 34.8421C65.7964 34.8421 66.1969 34.8143 66.4922 34.7588C66.7876 34.697 67.0347 34.5767 67.2335 34.3976C67.4379 34.2186 67.5771 33.9809 67.6509 33.6846C67.7248 33.3883 67.7617 32.9932 67.7617 32.4994V32.0642H70.241V32.3142C70.241 33.6661 70.0564 34.6446 69.6872 35.2495C69.3237 35.8483 68.7983 36.2897 68.111 36.5737C67.4237 36.8576 66.5604 36.9996 65.521 36.9996Z" fill="#16EA96"/>
<path d="M77.3601 36.9996C74.895 36.9996 73.2706 36.3329 72.4868 34.9995C72.0437 34.2587 71.8222 33.2988 71.8222 32.1197V27.8417C71.8222 25.9219 72.3703 24.5792 73.4666 23.8137C74.3697 23.1841 75.6789 22.8662 77.3942 22.86C79.7854 22.86 81.3644 23.5699 82.1312 24.9897C82.5629 25.7861 82.7787 26.783 82.7787 27.9806V31.9716C82.7787 33.8359 82.2391 35.1816 81.16 36.0088C80.2966 36.6694 79.03 36.9996 77.3601 36.9996ZM74.3611 32.4253C74.3611 33.3204 74.6139 33.947 75.1194 34.305C75.6249 34.6631 76.3775 34.8421 77.3772 34.8421C78.3825 34.8421 79.1095 34.6662 79.5582 34.3143C80.0126 33.9562 80.2398 33.3266 80.2398 32.4253V27.4713C80.2398 26.5824 80.0098 25.9527 79.5497 25.5823C79.0896 25.2058 78.3654 25.0175 77.3772 25.0175C76.3945 25.0175 75.6448 25.2027 75.1279 25.5731C74.6167 25.9435 74.3611 26.5762 74.3611 27.4713V32.4253Z" fill="#16EA96"/>
<path d="M87.4186 29.3974H90.5284C91.1247 29.3974 91.5337 29.2153 91.7552 28.851C91.9824 28.4806 92.096 27.922 92.096 27.175C92.096 25.7552 91.6075 25.0453 90.6306 25.0453H87.4186V29.3974ZM84.8882 36.7589V23.0915H90.3154C91.9398 23.0915 93.0445 23.4495 93.6296 24.1656C94.2203 24.8817 94.5156 25.854 94.5156 27.0824C94.5156 28.3047 94.3509 29.1967 94.0215 29.7585C93.6977 30.3141 93.2462 30.7153 92.6668 30.9623L95.095 36.7589H92.4709L90.2642 31.3604H87.4186V36.7589H84.8882Z" fill="#16EA96"/>
<path d="M96.6592 36.7589V23.0915H104.898V25.1657H99.1811V28.7955H104.25V30.7771H99.1811V34.6847H104.992V36.7589H96.6592Z" fill="#16EA96"/>
<path d="M45 34.4149L22.5 10.0375L0 34.4149L5.07868e-07 21.5847L45 21.5847L45 34.4149Z" fill="#16EA96"/>
<path fill-rule="evenodd" clip-rule="evenodd" d="M23.2259 34.4379C31.6941 34.4379 38.559 27.5261 38.559 19C38.559 10.4739 31.6941 3.56208 23.2259 3.56208C14.7577 3.56208 7.89285 10.4739 7.89285 19C7.89285 27.5261 14.7577 34.4379 23.2259 34.4379ZM23.2259 38C33.6481 38 42.0969 29.4934 42.0969 19C42.0969 8.50659 33.6481 0 23.2259 0C12.8038 0 4.35496 8.50659 4.35496 19C4.35496 29.4934 12.8038 38 23.2259 38Z" fill="#16EA96"/>
</svg>
