<svg width="20" height="16" viewBox="0 0 20 16" fill="none" xmlns="http://www.w3.org/2000/svg">
<path fill-rule="evenodd" clip-rule="evenodd" d="M17.5 0.5H2.5C1.83696 0.5 1.20107 0.76339 0.732234 1.23223C0.263393 1.70107 2.86102e-06 2.33696 2.86102e-06 3V13C2.86102e-06 13.663 0.263393 14.2989 0.732234 14.7678C1.20107 15.2366 1.83696 15.5 2.5 15.5H17.5C18.163 15.5 18.7989 15.2366 19.2678 14.7678C19.7366 14.2989 20 13.663 20 13V3C20 2.33696 19.7366 1.70107 19.2678 1.23223C18.7989 0.76339 18.163 0.5 17.5 0.5ZM17.5 13H2.5V5.18749L4.25 6.49998L9.25 10.25C9.46637 10.4123 9.72954 10.5 10 10.5C10.2705 10.5 10.5336 10.4123 10.75 10.25L15.75 6.49998L17.5 5.18749V13ZM10 7.6875L5.75 4.50002L3.74997 3H16.25L14.25 4.50002L10 7.6875Z" fill="#171717"/>
</svg>
