<svg width="20" height="20" viewBox="0 0 20 20" fill="none" xmlns="http://www.w3.org/2000/svg">
<path fill-rule="evenodd" clip-rule="evenodd" d="M19.9876 9.60222C19.9074 7.57219 19.2139 5.61941 18.0048 4.01904C16.8338 2.48078 15.2722 1.31042 13.4949 0.639049C11.7176 -0.0323217 9.79486 -0.178119 7.94204 0.217861C5.54041 0.660288 3.39051 2.02981 1.92663 4.04981C0.462743 6.06982 -0.205989 8.58966 0.0555161 11.1004C0.317021 13.6111 1.48927 15.9255 3.33546 17.576C5.18165 19.2266 7.56416 20.0903 10.0017 19.9925C11.5169 19.9964 13.0137 19.6492 14.3825 18.9764C14.5541 18.8899 14.7027 18.7614 14.8156 18.602C14.9284 18.4427 15.0021 18.2573 15.0301 18.0618C15.0582 17.8664 15.0398 17.6668 14.9767 17.4804C14.9135 17.2939 14.8073 17.1262 14.6675 16.9918C14.4885 16.8102 14.2608 16.6886 14.0142 16.6428C13.7675 16.5971 13.5132 16.6293 13.2845 16.7352C11.9119 17.402 10.3805 17.637 8.88016 17.4113C7.02779 17.1825 5.33262 16.2211 4.14925 14.7282C2.96588 13.2353 2.38597 11.3264 2.53083 9.40106C2.6757 7.47568 3.53411 5.68286 4.92651 4.39763C6.31891 3.1124 8.13743 2.43433 10.0017 2.50522C11.6196 2.49998 13.1968 3.02947 14.5039 4.01653C15.3137 4.61442 15.9947 5.37971 16.5041 6.26412C17.1605 7.39115 17.5068 8.68259 17.5054 9.99866C17.4951 10.3351 17.3589 10.6542 17.1254 10.8884C16.8919 11.1226 16.5795 11.2536 16.2544 11.2536C15.9292 11.2536 15.6168 11.1226 15.3833 10.8884C15.1498 10.6542 15.0136 10.3351 15.0033 9.99866C14.9916 9.01939 14.7021 8.06526 14.1709 7.25488C13.6397 6.44449 12.8902 5.8136 12.0155 5.44054C10.909 4.94322 9.66867 4.8651 8.5121 5.21988C7.88829 5.4334 7.31296 5.77606 6.8211 6.227C6.32924 6.67795 5.93113 7.22769 5.65098 7.84293C5.37084 8.45816 5.21452 9.12598 5.19153 9.80573C5.16854 10.4855 5.27936 11.1629 5.51725 11.797C5.75515 12.431 6.11513 13.0083 6.57532 13.4938C7.03551 13.9792 7.58628 14.3627 8.19414 14.6208C8.80199 14.879 9.45422 15.0064 10.1112 14.9954C10.7681 14.9844 11.416 14.8352 12.0155 14.5569C12.8011 14.2269 13.4862 13.6835 13.9983 12.984C14.652 13.4783 15.4405 13.7446 16.25 13.7447C16.3328 13.7469 16.4156 13.743 16.4979 13.7332C17.3641 13.686 18.1871 13.3267 18.8244 12.7175C19.4617 12.1084 19.8732 11.2878 19.9876 10.3977C19.9876 10.2694 20 10.1347 20 9.99741C20 9.86014 19.9876 9.72666 19.9876 9.60222ZM10.4961 12.4491C10.3332 12.4844 10.1669 12.5011 10.0004 12.4991C9.67708 12.5098 9.35493 12.4531 9.05314 12.3324C8.75135 12.2117 8.47607 12.0295 8.24366 11.7965C8.01126 11.5635 7.82647 11.2844 7.70027 10.976C7.57407 10.6676 7.50904 10.3362 7.50904 10.0012C7.50904 9.66632 7.57407 9.33478 7.70027 9.02639C7.82647 8.71799 8.01126 8.43902 8.24366 8.20601C8.47607 7.97301 8.75135 7.79073 9.05314 7.67003C9.35493 7.54934 9.67708 7.49268 10.0004 7.50341C10.1669 7.50136 10.3332 7.51814 10.4961 7.55344C11.055 7.65112 11.5624 7.95055 11.9283 8.39864C12.2942 8.84672 12.4949 9.41452 12.4949 10.0012C12.4949 10.588 12.2942 11.1558 11.9283 11.6039C11.5624 12.0519 11.055 12.3514 10.4961 12.4491Z" fill="#16EA96"/>
</svg>
