<svg width="20" height="16" viewBox="0 0 20 16" fill="none" xmlns="http://www.w3.org/2000/svg">
<path fill-rule="evenodd" clip-rule="evenodd" d="M17.5 3.99963H15.0875L13.325 1.18657C13.0986 0.820648 12.7905 0.520587 12.4282 0.31344C12.066 0.106294 11.661 -0.00142153 11.25 1.41659e-05H2.5C1.83757 0.00212427 1.20282 0.283733 0.734406 0.783325C0.265993 1.28292 0.00197841 1.9599 0 2.66643V10.6657C0.000246803 11.1617 0.130252 11.6479 0.375366 12.0695C0.62048 12.491 0.970966 12.8313 1.38748 13.0521C1.59561 13.874 2.04493 14.6033 2.66968 15.1333C3.29442 15.6632 4.06184 15.966 4.85954 15.9973C5.65725 16.0286 6.44341 15.7868 7.10297 15.3072C7.76252 14.8276 8.26083 14.1355 8.52501 13.3321H11.475C11.7392 14.1355 12.2375 14.8276 12.897 15.3072C13.5566 15.7868 14.3428 16.0286 15.1405 15.9973C15.9382 15.966 16.7056 15.6632 17.3303 15.1333C17.9551 14.6033 18.4044 13.874 18.6125 13.0521C19.029 12.8313 19.3795 12.491 19.6246 12.0695C19.8697 11.6479 19.9998 11.1617 20 10.6657V6.66604C19.998 5.95952 19.734 5.28254 19.2656 4.78294C18.7972 4.28335 18.1624 4.00174 17.5 3.99963ZM16.25 6.66604H17.5V9.02582C17.0432 8.58579 16.4915 8.27307 15.894 8.11551C15.2965 7.95795 14.6716 7.96045 14.0752 8.12277C13.4788 8.2851 12.9293 8.60221 12.4757 9.04588C12.022 9.48955 11.6782 10.046 11.475 10.6657H8.52501C8.32178 10.046 7.97801 9.48955 7.52434 9.04588C7.07066 8.60221 6.52116 8.2851 5.92476 8.12277C5.32836 7.96045 4.70351 7.95795 4.10599 8.11551C3.50846 8.27307 2.95678 8.58579 2.5 9.02582V6.66604H16.25ZM11.25 2.66643L12.0837 3.99963H8.75V2.66643H11.25ZM2.5 2.66643H6.25V3.99963H2.5V2.66643ZM3.75 11.9989C3.75 11.7352 3.8233 11.4774 3.96065 11.2582C4.098 11.0389 4.29323 10.8681 4.52164 10.7672C4.75004 10.6662 5.00136 10.6398 5.24384 10.6913C5.48631 10.7427 5.70905 10.8697 5.88387 11.0561C6.05868 11.2426 6.17774 11.4802 6.22597 11.7388C6.2742 11.9974 6.24947 12.2655 6.15486 12.5091C6.06025 12.7527 5.89999 12.9609 5.69443 13.1074C5.48887 13.2539 5.24723 13.3321 5 13.3321C4.66848 13.3321 4.35055 13.1916 4.11613 12.9416C3.88171 12.6916 3.75 12.3525 3.75 11.9989ZM13.75 11.9989C13.75 11.7352 13.8233 11.4774 13.9606 11.2582C14.098 11.0389 14.2932 10.8681 14.5216 10.7672C14.75 10.6662 15.0014 10.6398 15.2438 10.6913C15.4863 10.7427 15.7091 10.8697 15.8839 11.0561C16.0587 11.2426 16.1777 11.4802 16.226 11.7388C16.2742 11.9974 16.2495 12.2655 16.1549 12.5091C16.0603 12.7527 15.9 12.9609 15.6944 13.1074C15.4889 13.2539 15.2472 13.3321 15 13.3321C14.6685 13.3321 14.3506 13.1916 14.1161 12.9416C13.8817 12.6916 13.75 12.3525 13.75 11.9989Z" fill="#16EA96"/>
</svg>
