<svg width="20" height="20" viewBox="0 0 20 20" fill="none" xmlns="http://www.w3.org/2000/svg">
<path fill-rule="evenodd" clip-rule="evenodd" d="M17.5 0H2.5C1.83696 0 1.20107 0.26339 0.732231 0.732231C0.26339 1.20107 0 1.83696 0 2.5V17.5C0 18.163 0.26339 18.7989 0.732231 19.2678C1.20107 19.7366 1.83696 20 2.5 20H17.5C18.163 20 18.7989 19.7366 19.2678 19.2678C19.7366 18.7989 20 18.163 20 17.5V2.5C20 1.83696 19.7366 1.20107 19.2678 0.732231C18.7989 0.26339 18.163 0 17.5 0ZM17.5 17.5H2.5V2.5H17.5V17.5ZM6.25 15H8.75V12.5H7.5V7.5H8.75V5H6.25C5.91848 5 5.60054 5.1317 5.36612 5.36612C5.1317 5.60054 5 5.91848 5 6.25V13.75C5 14.0815 5.1317 14.3995 5.36612 14.6339C5.60054 14.8683 5.91848 15 6.25 15ZM13.75 15C14.0815 15 14.3995 14.8683 14.6339 14.6339C14.8683 14.3995 15 14.0815 15 13.75V6.25C15 5.91848 14.8683 5.60054 14.6339 5.36612C14.3995 5.1317 14.0815 5 13.75 5H11.25V7.5H12.5V12.5H11.25V15H13.75Z" fill="#16EA96"/>
</svg>
