<svg width="20" height="16" viewBox="0 0 20 16" fill="none" xmlns="http://www.w3.org/2000/svg">
<path d="M1.22726 6.96817L13.1398 2.21894C14.3157 1.72427 18.3038 0.141239 18.3038 0.141239C18.3038 0.141239 20.1444 -0.551282 19.9909 1.1306C19.9398 1.82312 19.531 4.2473 19.1218 6.86903L17.8437 14.6358C17.8437 14.6358 17.7414 15.7737 16.8707 15.9715C16.0001 16.1694 14.57 15.279 14.3146 15.081C14.1101 14.9327 10.48 12.7065 9.15064 11.6181C8.79272 11.3214 8.38379 10.7276 9.2018 10.0351C11.0424 8.40256 13.2409 6.37421 14.57 5.08802C15.1836 4.49435 15.7971 3.10916 13.2408 4.79133L6.03194 9.49106C6.03194 9.49106 5.21379 9.98573 3.68009 9.54055C2.14639 9.09537 0.356927 8.5017 0.356927 8.5017C0.356927 8.5017 -0.870151 7.75968 1.22608 6.96831L1.22726 6.96817Z" fill="#171717"/>
</svg>
