<svg width="120" height="38" viewBox="0 0 120 38" fill="none" xmlns="http://www.w3.org/2000/svg">
<path d="M67.9064 15.6304C67.6792 15.7662 67.3583 15.8835 66.9437 15.9822C66.5347 16.0872 65.9838 16.1396 65.2908 16.1396C64.6035 16.1396 63.9305 16.0594 63.2716 15.8989C62.0391 15.6026 61.1843 15.0717 60.7071 14.3062C60.2357 13.5346 60 12.5715 60 11.4172V6.85211C60 4.96929 60.5509 3.65441 61.6528 2.90746C62.5446 2.30249 63.8481 2 65.5634 2C68.3182 2.00617 69.9512 2.84881 70.4623 4.52791C70.6327 5.09584 70.7179 5.77798 70.7179 6.57432V6.78729L68.2301 6.991V6.44468C68.2301 5.55574 68.0314 4.95386 67.6338 4.63903C67.2362 4.31802 66.5375 4.15752 65.5379 4.15752C64.5439 4.15752 63.7942 4.33037 63.2887 4.67607C62.7888 5.02176 62.5389 5.63908 62.5389 6.52802V11.695C62.5389 12.6024 62.7973 13.2105 63.3142 13.5191C63.8311 13.8278 64.5808 13.9821 65.5634 13.9821C66.5461 13.9821 67.2702 13.8278 67.736 13.5191C68.2074 13.2105 68.4431 12.6024 68.4431 11.695V10.6949H65.9042V8.88925H70.7265V15.8989H69.3888L68.9884 14.3247C68.9146 14.5963 68.7726 14.8494 68.5624 15.084C68.3579 15.3124 68.1393 15.4945 67.9064 15.6304Z" fill="#171717"/>
<path d="M75.6134 8.53738H78.7232C79.3195 8.53738 79.7285 8.35527 79.95 7.99106C80.1772 7.62067 80.2908 7.062 80.2908 6.31504C80.2908 4.89521 79.8023 4.1853 78.8254 4.1853H75.6134V8.53738ZM73.083 15.8989V2.23149H78.5102C80.1346 2.23149 81.2393 2.58954 81.8244 3.30562C82.4151 4.02171 82.7104 4.99399 82.7104 6.22245C82.7104 7.44473 82.5457 8.33675 82.2163 8.89851C81.8925 9.4541 81.441 9.85535 80.8616 10.1023L83.2898 15.8989H80.6657L78.459 10.5005H75.6134V15.8989H73.083Z" fill="#171717"/>
<path d="M87.7082 11.4635H91.6443L89.7103 4.2779L87.7082 11.4635ZM83.8316 15.8989L87.9723 2.23149H91.3291L95.5208 15.8989H92.8371L92.13 13.2969H87.2055L86.4728 15.8989H83.8316Z" fill="#171717"/>
<path d="M96.8636 15.8989V2.23149H98.7635L105.298 11.6024V2.23149H107.547V15.8989H105.648L99.1384 6.67617V15.8989H96.8636Z" fill="#171717"/>
<path d="M109.913 15.8989V2.23149H115.365C117.376 2.23149 118.728 2.87968 119.421 4.17604C119.807 4.90447 120 5.84588 120 7.00026V11.1949C120 13.5037 119.193 14.9575 117.58 15.5563C116.967 15.7847 116.231 15.8989 115.374 15.8989H109.913ZM112.443 13.7599H115.152C116.016 13.7599 116.618 13.587 116.958 13.2413C117.299 12.8956 117.47 12.3308 117.47 11.5468V6.63913C117.47 5.86749 117.294 5.29647 116.941 4.92608C116.595 4.55569 115.999 4.3705 115.152 4.3705H112.443V13.7599Z" fill="#171717"/>
<path d="M65.5208 37C64.4871 37 63.6522 36.9198 63.016 36.7592C62.3799 36.5987 61.8687 36.3858 61.4824 36.1203C61.1019 35.8549 60.798 35.5154 60.5708 35.1018C60.3436 34.682 60.1903 34.2529 60.1108 33.8146C60.0369 33.3764 60 32.864 60 32.2775V27.7125C60 26.0828 60.3039 24.9407 60.9116 24.2864C61.5194 23.6258 62.3259 23.203 63.3313 23.0178C63.8992 22.9067 64.5411 22.8542 65.2567 22.8604C67.8524 22.8604 69.4002 23.632 69.9 25.1753C70.1272 25.8667 70.2408 26.6939 70.2408 27.6569V27.8236L67.7616 28.1384V27.4439C67.7616 26.4933 67.5883 25.8513 67.2418 25.5179C66.9011 25.1846 66.245 25.0179 65.2738 25.0179C64.3025 25.0179 63.601 25.1876 63.1694 25.5272C62.7434 25.8605 62.5304 26.4809 62.5304 27.3884V32.5553C62.5304 33.4689 62.7491 34.0801 63.1864 34.3888C63.6294 34.6912 64.3309 34.8425 65.2908 34.8425C65.7963 34.8425 66.1968 34.8147 66.4921 34.7591C66.7875 34.6974 67.0345 34.577 67.2333 34.398C67.4378 34.219 67.577 33.9813 67.6508 33.685C67.7246 33.3887 67.7616 32.9936 67.7616 32.4998V32.0646H70.2408V32.3146C70.2408 33.6665 70.0562 34.6449 69.687 35.2499C69.3235 35.8487 68.7981 36.2901 68.1109 36.5741C67.4236 36.858 66.5603 37 65.5208 37Z" fill="#171717"/>
<path d="M77.36 37C74.8949 37 73.2705 36.3333 72.4867 34.9999C72.0436 34.2591 71.8221 33.2992 71.8221 32.1201V27.8421C71.8221 25.9223 72.3702 24.5796 73.4664 23.8141C74.3695 23.1845 75.6787 22.8665 77.3941 22.8604C79.7853 22.8604 81.3643 23.5703 82.1311 24.9901C82.5628 25.7864 82.7786 26.7834 82.7786 27.981V31.972C82.7786 33.8363 82.239 35.182 81.1598 36.0092C80.2965 36.6697 79.0299 37 77.36 37ZM74.361 32.4257C74.361 33.3208 74.6138 33.9474 75.1193 34.3054C75.6248 34.6635 76.3774 34.8425 77.377 34.8425C78.3824 34.8425 79.1094 34.6665 79.5581 34.3147C80.0125 33.9566 80.2397 33.327 80.2397 32.4257V27.4717C80.2397 26.5828 80.0097 25.9531 79.5496 25.5827C79.0895 25.2062 78.3653 25.0179 77.377 25.0179C76.3944 25.0179 75.6447 25.2031 75.1278 25.5735C74.6166 25.9439 74.361 26.5766 74.361 27.4717V32.4257Z" fill="#171717"/>
<path d="M87.4185 29.3977H90.5282C91.1246 29.3977 91.5336 29.2156 91.7551 28.8514C91.9823 28.481 92.0959 27.9224 92.0959 27.1754C92.0959 25.7556 91.6074 25.0457 90.6305 25.0457H87.4185V29.3977ZM84.8881 36.7592V23.0919H90.3152C91.9397 23.0919 93.0444 23.4499 93.6294 24.166C94.2202 24.8821 94.5155 25.8543 94.5155 27.0828C94.5155 28.3051 94.3508 29.1971 94.0214 29.7589C93.6976 30.3145 93.2461 30.7157 92.6667 30.9626L95.0949 36.7592H92.4707L90.2641 31.3608H87.4185V36.7592H84.8881Z" fill="#171717"/>
<path d="M96.6591 36.7592V23.0919H104.898V25.166H99.181V28.7959H104.25V30.7774H99.181V34.6851H104.991V36.7592H96.6591Z" fill="#171717"/>
<path d="M45 34.4149L22.5 10.0375L0 34.4149L5.07868e-07 21.5847L45 21.5847L45 34.4149Z" fill="#16EA96"/>
<path fill-rule="evenodd" clip-rule="evenodd" d="M23.2259 34.4379C31.6941 34.4379 38.559 27.5261 38.559 19C38.559 10.4739 31.6941 3.56208 23.2259 3.56208C14.7577 3.56208 7.89285 10.4739 7.89285 19C7.89285 27.5261 14.7577 34.4379 23.2259 34.4379ZM23.2259 38C33.6481 38 42.0969 29.4934 42.0969 19C42.0969 8.50659 33.6481 0 23.2259 0C12.8038 0 4.35496 8.50659 4.35496 19C4.35496 29.4934 12.8038 38 23.2259 38Z" fill="#16EA96"/>
</svg>
