<svg width="20" height="20" viewBox="0 0 20 20" fill="none" xmlns="http://www.w3.org/2000/svg">
<path fill-rule="evenodd" clip-rule="evenodd" d="M19.6297 17.8546L13.6004 11.7937C14.565 10.4217 15.0411 8.76521 14.9523 7.09004C14.8636 5.41486 14.2152 3.81804 13.111 2.55573C12.0069 1.29343 10.5111 0.438858 8.86344 0.128975C7.21584 -0.180907 5.51196 0.0718907 4.02513 0.846884C2.5383 1.62188 1.3547 2.87414 0.664163 4.40275C-0.0263711 5.93136 -0.18384 7.64775 0.217079 9.2766C0.617997 10.9055 1.55405 12.3523 2.87505 13.3852C4.19606 14.4181 5.82546 14.9771 7.50191 14.9725C9.0585 14.9726 10.5756 14.4822 11.8381 13.571L17.8674 19.6318C17.9831 19.7485 18.1208 19.8412 18.2724 19.9044C18.4241 19.9676 18.5868 20.0001 18.751 20.0001C18.9153 20.0001 19.078 19.9676 19.2297 19.9044C19.3813 19.8412 19.519 19.7485 19.6347 19.6318C19.8695 19.3954 20.0009 19.0754 20 18.7421C19.9991 18.4088 19.8658 18.0896 19.6297 17.8546ZM7.50191 12.4586C6.50701 12.4641 5.53288 12.1739 4.70299 11.6248C3.87309 11.0757 3.22481 10.2924 2.84028 9.37418C2.45575 8.45599 2.35231 7.44427 2.54304 6.46718C2.73378 5.49009 3.2101 4.59166 3.91167 3.88576C4.61324 3.17986 5.50845 2.69828 6.48385 2.50203C7.45925 2.30579 8.47093 2.40372 9.39065 2.78343C10.3104 3.16313 11.0967 3.80751 11.65 4.63489C12.2034 5.46228 12.4987 6.43541 12.4987 7.43096C12.5005 8.08939 12.3728 8.7417 12.1226 9.35071C11.8725 9.95971 11.5049 10.5134 11.0409 10.9803C10.5769 11.4472 10.0256 11.818 9.41836 12.0717C8.81113 12.3253 8.15992 12.4568 7.50191 12.4586Z" fill="#171717"/>
</svg>
