<svg width="20" height="20" viewBox="0 0 20 20" fill="none" xmlns="http://www.w3.org/2000/svg">
<path fill-rule="evenodd" clip-rule="evenodd" d="M17.5 0H2.5C1.83696 0 1.20111 0.26339 0.732269 0.732231C0.263428 1.20107 0 1.83696 0 2.5V17.5C0 18.163 0.263428 18.7989 0.732269 19.2678C1.20111 19.7366 1.83696 20 2.5 20H17.5C18.163 20 18.7989 19.7366 19.2677 19.2678C19.7366 18.7989 20 18.163 20 17.5V2.5C20 1.83696 19.7366 1.20107 19.2677 0.732231C18.7989 0.26339 18.163 0 17.5 0ZM17.5 17.5H2.5V2.5H17.5V17.5ZM6.25 8.75C6.58152 8.75 6.89945 8.61829 7.13387 8.38387C7.36829 8.14944 7.5 7.83152 7.5 7.5H8.75V12.5C8.41848 12.5 8.10056 12.6317 7.86613 12.8661C7.63171 13.1006 7.5 13.4185 7.5 13.75C7.5 14.0815 7.63171 14.3994 7.86613 14.6339C8.10056 14.8683 8.41848 15 8.75 15H11.25C11.5815 15 11.8994 14.8683 12.1339 14.6339C12.3683 14.3994 12.5 14.0815 12.5 13.75C12.5 13.4185 12.3683 13.1006 12.1339 12.8661C11.8994 12.6317 11.5815 12.5 11.25 12.5V7.5H12.5C12.5 7.83152 12.6317 8.14944 12.8661 8.38387C13.1006 8.61829 13.4185 8.75 13.75 8.75C14.0815 8.75 14.3994 8.61829 14.6339 8.38387C14.8683 8.14944 15 7.83152 15 7.5V6.25C15 5.91848 14.8683 5.60055 14.6339 5.36613C14.3994 5.13171 14.0815 5 13.75 5H6.25C5.91848 5 5.60055 5.13171 5.36613 5.36613C5.13171 5.60055 5 5.91848 5 6.25V7.5C5 7.83152 5.13171 8.14944 5.36613 8.38387C5.60055 8.61829 5.91848 8.75 6.25 8.75Z" fill="#16EA96"/>
</svg>
